<svg width="32" height="33" viewBox="0 0 32 33" fill="none" xmlns="http://www.w3.org/2000/svg">
<path d="M10.6666 8.31819C10.6666 6.87156 11.2285 5.48417 12.2287 4.46125C13.2289 3.43832 14.5855 2.86365 16 2.86365C17.4144 2.86365 18.771 3.43832 19.7712 4.46125C20.7714 5.48417 21.3333 6.87156 21.3333 8.31819V16.5C21.3333 17.9466 20.7714 19.334 19.7712 20.357C18.771 21.3799 17.4144 21.9546 16 21.9546C14.5855 21.9546 13.2289 21.3799 12.2287 20.357C11.2285 19.334 10.6666 17.9466 10.6666 16.5V8.31819ZM16 4.56819C15.0275 4.56819 14.0949 4.96328 13.4072 5.66654C12.7196 6.3698 12.3333 7.32363 12.3333 8.31819V16.5C12.3333 17.4946 12.7196 18.4484 13.4072 19.1517C14.0949 19.8549 15.0275 20.25 16 20.25C16.9724 20.25 17.9051 19.8549 18.5927 19.1517C19.2803 18.4484 19.6666 17.4946 19.6666 16.5V8.31819C19.6666 7.32363 19.2803 6.3698 18.5927 5.66654C17.9051 4.96328 16.9724 4.56819 16 4.56819Z" fill="white"/>
<path d="M16.6666 25.8511C21.51 25.5014 25.3333 21.3716 25.3333 16.3295C25.3333 16.1035 25.2455 15.8867 25.0892 15.7269C24.9329 15.5671 24.721 15.4773 24.5 15.4773C24.2789 15.4773 24.067 15.5671 23.9107 15.7269C23.7544 15.8867 23.6666 16.1035 23.6666 16.3295C23.6666 20.6598 20.234 24.1704 16 24.1704C11.766 24.1704 8.33329 20.6598 8.33329 16.3295C8.33329 16.1035 8.2455 15.8867 8.08922 15.7269C7.93293 15.5671 7.72097 15.4773 7.49996 15.4773C7.27895 15.4773 7.06698 15.5671 6.9107 15.7269C6.75442 15.8867 6.66663 16.1035 6.66663 16.3295C6.66663 21.2557 10.3153 25.3104 15 25.8204V29.2841C15 29.5101 15.0878 29.7269 15.244 29.8867C15.4003 30.0466 15.6123 30.1364 15.8333 30.1364C16.0543 30.1364 16.2663 30.0466 16.4225 29.8867C16.5788 29.7269 16.6666 29.5101 16.6666 29.2841V25.8511Z" fill="white"/>
</svg>
